<svg id="Layer_1" data-name="Layer 1" xmlns="http://www.w3.org/2000/svg" viewBox="0 0 85.3 87.2"><defs><style>.cls-1{opacity:0.32;isolation:isolate;}.cls-2{fill:#fff;}</style></defs><title>svgNextPageW</title><ellipse class="cls-1" cx="42.7" cy="45.6" rx="42.5" ry="41.7"/><ellipse class="cls-2" cx="42.7" cy="41.7" rx="42.5" ry="41.7"/><path d="M28.3,23.4c-2.7-1.3-6.6.1-6.6,5.1V54.9c0,5.3,4.3,6.3,6.6,5.1S56.1,46.3,56.1,46.3s4.3-2,4.3-4.6-4.2-4.5-4.2-4.5S31,24.7,28.3,23.4Z"/><path d="M60.5,22.3h0a4.27,4.27,0,0,0-4.3,4.3V56.8a4.27,4.27,0,0,0,4.3,4.3h0a4.27,4.27,0,0,0,4.3-4.3V26.6A4.33,4.33,0,0,0,60.5,22.3Z"/></svg>