<?xml version="1.0" encoding="utf-8"?>
<!-- Generator: Adobe Illustrator 23.0.1, SVG Export Plug-In . SVG Version: 6.00 Build 0)  -->
<svg version="1.1" id="Layer_1" xmlns="http://www.w3.org/2000/svg" xmlns:xlink="http://www.w3.org/1999/xlink" x="0px" y="0px"
	 viewBox="0 0 85.3 87.2" style="enable-background:new 0 0 85.3 87.2;" xml:space="preserve">
<style type="text/css">
	.st0{display:none;}
	.st1{display:inline;opacity:0.32;enable-background:new    ;}
	.st2{display:inline;}
	.st3{fill:#FFFFFF;}
	.st4{opacity:0.32;enable-background:new    ;}
</style>
<g>
	<g id="XMLID_275_" class="st0">
		<circle id="XMLID_56_" class="st1" cx="42.6" cy="45.8" r="41.4"/>
		<circle id="XMLID_274_" class="st2" cx="42.6" cy="41.9" r="41.4"/>
		<g id="XMLID_273_" class="st2">
			<path id="XMLID_57_" class="st3" d="M27.6,60.1c-2.7,1.3-6.5-0.1-6.5-5V28.8c0-5.3,4.2-6.2,6.5-5s27.1,13.6,27.1,13.6
				s4.2,2,4.2,4.6s-4.1,4.5-4.1,4.5S30.3,58.8,27.6,60.1z"/>
			<path id="XMLID_58_" class="st3" d="M58.9,61.2L58.9,61.2c-2.3,0-4.2-1.9-4.2-4.2V26.8c0-2.3,1.9-4.2,4.2-4.2l0,0
				c2.3,0,4.2,1.9,4.2,4.2V57C63.1,59.3,61.2,61.2,58.9,61.2z"/>
		</g>
	</g>
	<g id="XMLID_276_" class="st0">
		<ellipse id="XMLID_281_" class="st1" cx="42.7" cy="45.6" rx="42.5" ry="41.7"/>
		<ellipse id="XMLID_280_" class="st2" cx="42.7" cy="41.7" rx="42.5" ry="41.7"/>
		<g id="XMLID_277_" class="st2">
			<path id="XMLID_279_" class="st3" d="M58.1,59.9c2.7,1.3,6.6-0.1,6.6-5.1V28.4c0-5.3-4.3-6.3-6.6-5.1S30.3,37,30.3,37
				S26,39,26,41.6s4.2,4.5,4.2,4.5S55.4,58.6,58.1,59.9z"/>
			<path id="XMLID_278_" class="st3" d="M26,61L26,61c2.4,0,4.3-1.9,4.3-4.3V26.6c0-2.4-1.9-4.3-4.3-4.3l0,0c-2.4,0-4.3,1.9-4.3,4.3
				v30.2C21.7,59.1,23.6,61,26,61z"/>
		</g>
	</g>
	<g id="XMLID_432_">
		<ellipse id="XMLID_437_" class="st4" cx="42.7" cy="45.6" rx="42.5" ry="41.7"/>
		<ellipse id="XMLID_436_" class="st3" cx="42.7" cy="41.7" rx="42.5" ry="41.7"/>
		<g id="XMLID_433_">
			<path id="XMLID_435_" d="M30.3,37.2c0,0-4.2,1.9-4.2,4.5s4.3,4.6,4.3,4.6S55.9,58.8,58.2,60s6.6,0.2,6.6-5.1V28.5
				c0-5-3.9-6.4-6.6-5.1C55.5,24.7,30.3,37.2,30.3,37.2z"/>
			<path id="XMLID_434_" d="M21.7,26.6v30.2c0,2.4,1.9,4.3,4.3,4.3l0,0c2.4,0,4.3-1.9,4.3-4.3V26.6c0-2.4-1.9-4.3-4.3-4.3l0,0
				C23.7,22.3,21.7,24.2,21.7,26.6z"/>
		</g>
	</g>
</g>
</svg>
